<svg width="9" height="6" viewBox="0 0 9 6" fill="none" xmlns="http://www.w3.org/2000/svg">
<path fill-rule="evenodd" clip-rule="evenodd" d="M0.220011 1.21991C0.360637 1.07946 0.551261 1.00057 0.750011 1.00057C0.948762 1.00057 1.13939 1.07946 1.28001 1.21991L4.00001 3.93991L6.72001 1.21991C6.78867 1.14622 6.87147 1.08712 6.96347 1.04613C7.05547 1.00514 7.15479 0.983095 7.25549 0.981318C7.35619 0.979541 7.45622 0.998066 7.54961 1.03579C7.643 1.07351 7.72783 1.12965 7.79905 1.20087C7.87027 1.27209 7.92641 1.35692 7.96413 1.45031C8.00186 1.5437 8.02038 1.64373 8.0186 1.74443C8.01683 1.84513 7.99478 1.94445 7.95379 2.03645C7.9128 2.12845 7.8537 2.21125 7.78001 2.27991L4.53001 5.52991C4.38939 5.67036 4.19876 5.74925 4.00001 5.74925C3.80126 5.74925 3.61064 5.67036 3.47001 5.52991L0.220011 2.27991C0.0795608 2.13928 0.000671387 1.94866 0.000671387 1.74991C0.000671387 1.55116 0.0795608 1.36053 0.220011 1.21991Z" fill="white"/>
</svg>
