<svg width="24" height="24" viewBox="0 0 24 24" fill="none" xmlns="http://www.w3.org/2000/svg">
<path d="M3 24C2.175 24 1.469 23.7317 0.882 23.195C0.294 22.6574 0 22.0114 0 21.2571V8.91429C0 8.48 0.1065 8.06857 0.3195 7.68C0.5315 7.29143 0.825 6.97143 1.2 6.72L10.2 0.548572C10.475 0.365714 10.7625 0.228571 11.0625 0.137143C11.3625 0.0457142 11.675 0 12 0C12.325 0 12.6375 0.0457142 12.9375 0.137143C13.2375 0.228571 13.525 0.365714 13.8 0.548572L22.8 6.72C23.175 6.97143 23.469 7.29143 23.682 7.68C23.894 8.06857 24 8.48 24 8.91429V21.2571C24 22.0114 23.7065 22.6574 23.1195 23.195C22.5315 23.7317 21.825 24 21 24H15V14.4H9V24H3Z" fill="black"/>
</svg>
