<svg width="220" height="220" viewBox="0 0 220 220" fill="none" xmlns="http://www.w3.org/2000/svg">
<path d="M192.5 128.333H183.333V155.833H192.5V128.333Z" fill="#C9FBC9"/>
<path d="M174.167 110V174.167H165V165H128.333V128.333H155.833V119.167H165V110H174.167Z" fill="#C9FBC9"/>
<path d="M137.5 174.167H128.333V192.5H137.5V174.167Z" fill="#C9FBC9"/>
<path d="M128.333 165H119.167V174.167H128.333V165Z" fill="#C9FBC9"/>
<path d="M91.6667 82.5V27.5H27.5V174.167H110V165H100.833V155.833H91.6667V128.333H100.833V119.167H137.5V82.5H91.6667ZM36.6667 45.8333H82.5V55H36.6667V45.8333ZM36.6667 64.1667H82.5V73.3333H36.6667V64.1667ZM36.6667 82.5H82.5V91.6667H36.6667V82.5ZM73.3333 146.667H36.6667V137.5H73.3333V146.667ZM73.3333 128.333H36.6667V119.167H73.3333V128.333ZM100.833 110H36.6667V100.833H100.833V110Z" fill="white"/>
<path d="M137.5 64.1667V73.3333H100.833V36.6667H110V45.8333H119.167V55H128.333V64.1667H137.5Z" fill="white"/>
<path d="M128.333 119.167V165H100.833V155.833H119.167V128.333H100.833V119.167H128.333Z" fill="#007D00"/>
<path d="M100.833 128.333H91.6667V155.833H100.833V128.333Z" fill="#007D00"/>
<path d="M119.167 128.333H100.833V155.833H119.167V128.333Z" fill="#0CC00C"/>
<path d="M165 165V174.167H146.667V201.667H119.167V183.333H110V165H119.167V174.167H128.333V192.5H137.5V174.167H128.333V165H165Z" fill="#0CC00C"/>
<path d="M183.333 128.333V155.833H192.5V165H183.333V183.333H165V174.167H174.167V110H165V100.833H183.333V119.167H192.5V128.333H183.333Z" fill="#0CC00C"/>
<path d="M201.667 128.333H192.5V155.833H201.667V128.333Z" fill="#0CC00C"/>
<path d="M165 110V119.167H155.833V128.333H128.333V119.167H146.667V110H165Z" fill="#0CC00C"/>
<path d="M201.667 155.833H192.5V165H201.667V155.833Z" fill="black"/>
<path d="M201.667 119.167H192.5V128.333H201.667V119.167Z" fill="black"/>
<path d="M146.667 55H137.5V64.1667H146.667V55Z" fill="black"/>
<path d="M137.5 45.8333H128.333V55H137.5V45.8333Z" fill="black"/>
<path d="M128.333 36.6667H119.167V45.8333H128.333V36.6667Z" fill="black"/>
<path d="M119.167 27.5H110V36.6667H119.167V27.5Z" fill="black"/>
<path d="M110 18.3333H100.833V27.5H110V18.3333Z" fill="black"/>
<path d="M100.833 9.16666H27.5V18.3333H100.833V9.16666Z" fill="black"/>
<path d="M27.4999 18.3333H18.3333V27.5H27.4999V18.3333Z" fill="black"/>
<path d="M18.3334 27.5H9.16675V174.167H18.3334V27.5Z" fill="black"/>
<path d="M27.4999 174.167H18.3333V183.333H27.4999V174.167Z" fill="black"/>
<path d="M119.167 183.333V201.667H110V192.5H27.5V183.333H119.167Z" fill="black"/>
<path d="M146.667 201.667H119.167V210.833H146.667V201.667Z" fill="black"/>
<path d="M165 100.833V110H146.667V64.1667H155.833V100.833H165Z" fill="black"/>
<path d="M183.333 91.6667H165V100.833H183.333V91.6667Z" fill="black"/>
<path d="M183.333 183.333H165V192.5H183.333V183.333Z" fill="black"/>
<path d="M165 174.167V183.333H155.833V201.667H146.667V174.167H165Z" fill="black"/>
<path d="M210.833 128.333H201.667V155.833H210.833V128.333Z" fill="black"/>
<path d="M192.5 165H183.333V183.333H192.5V165Z" fill="black"/>
<path d="M192.5 100.833H183.333V119.167H192.5V100.833Z" fill="black"/>
<path d="M110 174.167H27.5V183.333H110V174.167Z" fill="#A6A6A6"/>
<path d="M27.4999 27.5H18.3333V174.167H27.4999V27.5Z" fill="#A6A6A6"/>
<path d="M73.3334 137.5H36.6667V146.667H73.3334V137.5Z" fill="#A6A6A6"/>
<path d="M73.3334 119.167H36.6667V128.333H73.3334V119.167Z" fill="#A6A6A6"/>
<path d="M100.833 100.833H36.6667V110H100.833V100.833Z" fill="#A6A6A6"/>
<path d="M82.5001 82.5H36.6667V91.6667H82.5001V82.5Z" fill="#A6A6A6"/>
<path d="M82.5001 64.1667H36.6667V73.3334H82.5001V64.1667Z" fill="#A6A6A6"/>
<path d="M82.5001 45.8333H36.6667V55H82.5001V45.8333Z" fill="#A6A6A6"/>
<path d="M146.667 64.1667V119.167H137.5V82.5H91.6667V27.5H27.5V18.3333H100.833V27.5H110V36.6667H100.833V73.3333H137.5V64.1667H146.667Z" fill="#A6A6A6"/>
<path d="M119.167 36.6667H110V45.8333H119.167V36.6667Z" fill="#A6A6A6"/>
<path d="M128.333 45.8333H119.167V55H128.333V45.8333Z" fill="#A6A6A6"/>
<path d="M137.5 55H128.333V64.1667H137.5V55Z" fill="#A6A6A6"/>
</svg>
