<svg width="32" height="32" viewBox="0 0 32 32" fill="none" xmlns="http://www.w3.org/2000/svg">
<path d="M1.77778 32C1.27407 32 0.852148 31.744 0.512 31.232C0.170667 30.7218 0 30.0889 0 29.3333C0 28.5778 0.170667 27.9449 0.512 27.4347C0.852148 26.9227 1.27407 26.6667 1.77778 26.6667H30.2222C30.7259 26.6667 31.1479 26.9227 31.488 27.4347C31.8293 27.9449 32 28.5778 32 29.3333C32 30.0889 31.8293 30.7218 31.488 31.232C31.1479 31.744 30.7259 32 30.2222 32H1.77778ZM1.77778 18.6667C1.27407 18.6667 0.852148 18.4107 0.512 17.8987C0.170667 17.3884 0 16.7556 0 16C0 15.2444 0.170667 14.6107 0.512 14.0987C0.852148 13.5884 1.27407 13.3333 1.77778 13.3333H30.2222C30.7259 13.3333 31.1479 13.5884 31.488 14.0987C31.8293 14.6107 32 15.2444 32 16C32 16.7556 31.8293 17.3884 31.488 17.8987C31.1479 18.4107 30.7259 18.6667 30.2222 18.6667H1.77778ZM1.77778 5.33333C1.27407 5.33333 0.852148 5.07822 0.512 4.568C0.170667 4.056 0 3.42222 0 2.66667C0 1.91111 0.170667 1.27733 0.512 0.765334C0.852148 0.255112 1.27407 0 1.77778 0H30.2222C30.7259 0 31.1479 0.255112 31.488 0.765334C31.8293 1.27733 32 1.91111 32 2.66667C32 3.42222 31.8293 4.056 31.488 4.568C31.1479 5.07822 30.7259 5.33333 30.2222 5.33333H1.77778Z" fill="black"/>
</svg>
